<?xml version="1.0" encoding="iso-8859-1"?>
<!-- Generator: Adobe Illustrator 19.0.1, SVG Export Plug-In . SVG Version: 6.00 Build 0)  -->
<svg version="1.1" xmlns="http://www.w3.org/2000/svg" xmlns:xlink="http://www.w3.org/1999/xlink" x="0px" y="0px"
	 viewBox="0 0 128 128" style="enable-background:new 0 0 128 128;" xml:space="preserve">
<g id="_x32_4">
	<path style="fill:#FFD600;" d="M10.299,59.121c1.69-0.154,3.227-0.461,4.303-1.535c2.459-2.455,2.459-8.133,2.459-12.43V22.141
		c0-12.582,2.149-22.095,18.9-22.095c6.762,0,7.069,10.281,0,10.281c-6.607,0-7.837,3.068-7.837,11.969v22.402
		c0,7.059,0.769,15.957-7.528,19.64c8.297,3.529,7.528,12.888,7.528,19.793v21.482c0,8.9,1.23,11.969,7.837,11.969
		c7.069,0,6.762,10.281,0,10.281c-16.751,0-18.9-9.514-18.9-22.095V83.672c0-4.297,0-9.975-2.459-12.43
		c-1.076-1.074-2.613-1.381-4.303-1.535c-2.92-0.152-4.303-2.762-4.303-5.369C5.996,61.883,7.379,59.274,10.299,59.121z
		 M117.703,69.707c-1.692,0.154-3.227,0.461-4.303,1.535c-2.459,2.455-2.459,8.133-2.459,12.43v22.095
		c0,12.582-2.152,22.095-18.9,22.095c-6.762,0-7.069-10.281,0-10.281c6.607,0,7.835-3.068,7.835-11.969V84.131
		c0-6.904-0.766-16.263,7.53-19.793c-8.297-3.684-7.53-12.582-7.53-19.64V22.296c0-8.9-1.228-11.969-7.835-11.969
		c-7.069,0-6.762-10.281,0-10.281c16.748,0,18.9,9.514,18.9,22.095v23.015c0,4.297,0,9.975,2.459,12.43
		c1.076,1.074,2.611,1.381,4.303,1.535c2.918,0.152,4.301,2.762,4.301,5.217C122.004,66.945,120.621,69.555,117.703,69.707z"/>
</g>
<g id="Layer_1">
</g>
</svg>
